<mxfile host="app.diagrams.net" modified="2023-12-21T10:52:29.528Z" agent="Mozilla/5.0 (Windows NT 10.0; Win64; x64; rv:121.0) Gecko/20100101 Firefox/121.0" etag="TQR8HwLLq1HuWRX6wsnI" version="22.1.11" type="device">
  <diagram id="-SkS9h52dyCRQVoHQHtN" name="Page-2">
    <mxGraphModel dx="1964" dy="1674" grid="1" gridSize="10" guides="1" tooltips="1" connect="1" arrows="1" fold="1" page="1" pageScale="1" pageWidth="850" pageHeight="1100" math="0" shadow="0">
      <root>
        <mxCell id="0" />
        <mxCell id="1" parent="0" />
        <mxCell id="V4WPFphY2ZdUjp7nFWfL-87" value="" style="rounded=0;whiteSpace=wrap;html=1;fillColor=none;" parent="1" vertex="1">
          <mxGeometry x="-500" y="-280" width="910" height="1000" as="geometry" />
        </mxCell>
        <mxCell id="V4WPFphY2ZdUjp7nFWfL-114" style="rounded=0;orthogonalLoop=1;jettySize=auto;html=1;entryX=1;entryY=0.5;entryDx=0;entryDy=0;" parent="1" source="V4WPFphY2ZdUjp7nFWfL-84" target="V4WPFphY2ZdUjp7nFWfL-36" edge="1">
          <mxGeometry relative="1" as="geometry" />
        </mxCell>
        <mxCell id="V4WPFphY2ZdUjp7nFWfL-115" style="rounded=0;orthogonalLoop=1;jettySize=auto;html=1;entryX=0;entryY=0.5;entryDx=0;entryDy=0;" parent="1" source="V4WPFphY2ZdUjp7nFWfL-84" target="V4WPFphY2ZdUjp7nFWfL-4" edge="1">
          <mxGeometry relative="1" as="geometry" />
        </mxCell>
        <mxCell id="V4WPFphY2ZdUjp7nFWfL-120" style="rounded=0;orthogonalLoop=1;jettySize=auto;html=1;exitX=0.5;exitY=0;exitDx=0;exitDy=0;exitPerimeter=0;entryX=1;entryY=0.5;entryDx=0;entryDy=0;" parent="1" source="V4WPFphY2ZdUjp7nFWfL-84" target="V4WPFphY2ZdUjp7nFWfL-82" edge="1">
          <mxGeometry relative="1" as="geometry" />
        </mxCell>
        <mxCell id="V4WPFphY2ZdUjp7nFWfL-121" style="rounded=0;orthogonalLoop=1;jettySize=auto;html=1;entryX=0;entryY=0.5;entryDx=0;entryDy=0;" parent="1" source="V4WPFphY2ZdUjp7nFWfL-84" target="V4WPFphY2ZdUjp7nFWfL-100" edge="1">
          <mxGeometry relative="1" as="geometry" />
        </mxCell>
        <mxCell id="V4WPFphY2ZdUjp7nFWfL-122" style="rounded=0;orthogonalLoop=1;jettySize=auto;html=1;entryX=1;entryY=0.5;entryDx=0;entryDy=0;" parent="1" source="V4WPFphY2ZdUjp7nFWfL-84" target="V4WPFphY2ZdUjp7nFWfL-47" edge="1">
          <mxGeometry relative="1" as="geometry" />
        </mxCell>
        <mxCell id="V4WPFphY2ZdUjp7nFWfL-123" style="rounded=0;orthogonalLoop=1;jettySize=auto;html=1;entryX=0;entryY=0.5;entryDx=0;entryDy=0;" parent="1" source="V4WPFphY2ZdUjp7nFWfL-84" target="V4WPFphY2ZdUjp7nFWfL-71" edge="1">
          <mxGeometry relative="1" as="geometry" />
        </mxCell>
        <mxCell id="V4WPFphY2ZdUjp7nFWfL-124" style="rounded=0;orthogonalLoop=1;jettySize=auto;html=1;entryX=0;entryY=0.5;entryDx=0;entryDy=0;" parent="1" source="V4WPFphY2ZdUjp7nFWfL-84" target="V4WPFphY2ZdUjp7nFWfL-58" edge="1">
          <mxGeometry relative="1" as="geometry" />
        </mxCell>
        <mxCell id="V4WPFphY2ZdUjp7nFWfL-84" value="&lt;font style=&quot;font-size: 18px;&quot;&gt;Администратор&lt;/font&gt;" style="shape=umlActor;verticalLabelPosition=bottom;verticalAlign=top;html=1;outlineConnect=0;" parent="1" vertex="1">
          <mxGeometry x="-60" y="750" width="70" height="140" as="geometry" />
        </mxCell>
        <mxCell id="V4WPFphY2ZdUjp7nFWfL-88" value="" style="group" parent="1" vertex="1" connectable="0">
          <mxGeometry x="-481.62" y="1.5" width="413.36" height="278.5" as="geometry" />
        </mxCell>
        <mxCell id="V4WPFphY2ZdUjp7nFWfL-38" value="&lt;div&gt;Редактирование&lt;br&gt;&lt;/div&gt;&lt;div&gt;статьи&lt;br&gt;&lt;/div&gt;" style="ellipse;whiteSpace=wrap;html=1;" parent="V4WPFphY2ZdUjp7nFWfL-88" vertex="1">
          <mxGeometry y="76.35627530364373" width="111.74057142857144" height="74.49392712550608" as="geometry" />
        </mxCell>
        <mxCell id="V4WPFphY2ZdUjp7nFWfL-39" value="&lt;div&gt;Создание&lt;/div&gt;&lt;div&gt;статьи&lt;br&gt;&lt;/div&gt;" style="ellipse;whiteSpace=wrap;html=1;" parent="V4WPFphY2ZdUjp7nFWfL-88" vertex="1">
          <mxGeometry x="83.80542857142858" y="155.50607287449392" width="111.74057142857144" height="74.49392712550608" as="geometry" />
        </mxCell>
        <mxCell id="V4WPFphY2ZdUjp7nFWfL-40" value="&lt;div&gt;Удаление&lt;/div&gt;&lt;div&gt;статьи&lt;br&gt;&lt;/div&gt;" style="ellipse;whiteSpace=wrap;html=1;" parent="V4WPFphY2ZdUjp7nFWfL-88" vertex="1">
          <mxGeometry x="83.80542857142858" width="111.74057142857144" height="74.49392712550608" as="geometry" />
        </mxCell>
        <mxCell id="V4WPFphY2ZdUjp7nFWfL-41" style="rounded=0;orthogonalLoop=1;jettySize=auto;html=1;entryX=1;entryY=0.5;entryDx=0;entryDy=0;dashed=1;edgeStyle=orthogonalEdgeStyle;" parent="V4WPFphY2ZdUjp7nFWfL-88" source="V4WPFphY2ZdUjp7nFWfL-47" target="V4WPFphY2ZdUjp7nFWfL-38" edge="1">
          <mxGeometry relative="1" as="geometry">
            <Array as="points">
              <mxPoint x="111.74057142857144" y="113.60323886639677" />
            </Array>
          </mxGeometry>
        </mxCell>
        <mxCell id="V4WPFphY2ZdUjp7nFWfL-42" value="&amp;lt;&amp;lt;extends&amp;gt;&amp;gt;" style="edgeLabel;html=1;align=center;verticalAlign=middle;resizable=0;points=[];" parent="V4WPFphY2ZdUjp7nFWfL-41" vertex="1" connectable="0">
          <mxGeometry x="-0.2067" relative="1" as="geometry">
            <mxPoint x="1" as="offset" />
          </mxGeometry>
        </mxCell>
        <mxCell id="V4WPFphY2ZdUjp7nFWfL-43" style="rounded=0;orthogonalLoop=1;jettySize=auto;html=1;dashed=1;" parent="V4WPFphY2ZdUjp7nFWfL-88" source="V4WPFphY2ZdUjp7nFWfL-47" target="V4WPFphY2ZdUjp7nFWfL-39" edge="1">
          <mxGeometry relative="1" as="geometry" />
        </mxCell>
        <mxCell id="V4WPFphY2ZdUjp7nFWfL-44" value="&amp;lt;&amp;lt;extends&amp;gt;&amp;gt;" style="edgeLabel;html=1;align=center;verticalAlign=middle;resizable=0;points=[];" parent="V4WPFphY2ZdUjp7nFWfL-43" vertex="1" connectable="0">
          <mxGeometry x="-0.0706" y="-1" relative="1" as="geometry">
            <mxPoint as="offset" />
          </mxGeometry>
        </mxCell>
        <mxCell id="V4WPFphY2ZdUjp7nFWfL-45" style="rounded=0;orthogonalLoop=1;jettySize=auto;html=1;dashed=1;" parent="V4WPFphY2ZdUjp7nFWfL-88" source="V4WPFphY2ZdUjp7nFWfL-47" target="V4WPFphY2ZdUjp7nFWfL-40" edge="1">
          <mxGeometry relative="1" as="geometry" />
        </mxCell>
        <mxCell id="V4WPFphY2ZdUjp7nFWfL-46" value="&amp;lt;&amp;lt;extends&amp;gt;&amp;gt;" style="edgeLabel;html=1;align=center;verticalAlign=middle;resizable=0;points=[];" parent="V4WPFphY2ZdUjp7nFWfL-45" vertex="1" connectable="0">
          <mxGeometry x="-0.0741" y="-1" relative="1" as="geometry">
            <mxPoint as="offset" />
          </mxGeometry>
        </mxCell>
        <mxCell id="V4WPFphY2ZdUjp7nFWfL-47" value="&lt;div&gt;Управление&lt;/div&gt;&lt;div&gt;статьей&lt;br&gt;&lt;/div&gt;" style="ellipse;whiteSpace=wrap;html=1;" parent="V4WPFphY2ZdUjp7nFWfL-88" vertex="1">
          <mxGeometry x="214.1694285714286" y="76.35627530364373" width="111.74057142857144" height="74.49392712550608" as="geometry" />
        </mxCell>
        <mxCell id="V4WPFphY2ZdUjp7nFWfL-89" value="" style="group" parent="1" vertex="1" connectable="0">
          <mxGeometry x="-387.07" y="240" width="231.36" height="210" as="geometry" />
        </mxCell>
        <mxCell id="V4WPFphY2ZdUjp7nFWfL-74" value="&lt;div&gt;Создание&lt;/div&gt;&lt;div&gt;отзыва&lt;br&gt;&lt;/div&gt;" style="ellipse;whiteSpace=wrap;html=1;" parent="V4WPFphY2ZdUjp7nFWfL-89" vertex="1">
          <mxGeometry y="138.81355932203388" width="106.78153846153847" height="71.1864406779661" as="geometry" />
        </mxCell>
        <mxCell id="V4WPFphY2ZdUjp7nFWfL-75" value="&lt;div&gt;Удаление&lt;/div&gt;&lt;div&gt;отзыва&lt;br&gt;&lt;/div&gt;" style="ellipse;whiteSpace=wrap;html=1;" parent="V4WPFphY2ZdUjp7nFWfL-89" vertex="1">
          <mxGeometry width="106.78153846153847" height="71.1864406779661" as="geometry" />
        </mxCell>
        <mxCell id="V4WPFphY2ZdUjp7nFWfL-78" style="rounded=0;orthogonalLoop=1;jettySize=auto;html=1;dashed=1;" parent="V4WPFphY2ZdUjp7nFWfL-89" source="V4WPFphY2ZdUjp7nFWfL-82" target="V4WPFphY2ZdUjp7nFWfL-74" edge="1">
          <mxGeometry relative="1" as="geometry" />
        </mxCell>
        <mxCell id="V4WPFphY2ZdUjp7nFWfL-79" value="&amp;lt;&amp;lt;extends&amp;gt;&amp;gt;" style="edgeLabel;html=1;align=center;verticalAlign=middle;resizable=0;points=[];" parent="V4WPFphY2ZdUjp7nFWfL-78" vertex="1" connectable="0">
          <mxGeometry x="-0.0706" y="-1" relative="1" as="geometry">
            <mxPoint as="offset" />
          </mxGeometry>
        </mxCell>
        <mxCell id="V4WPFphY2ZdUjp7nFWfL-80" style="rounded=0;orthogonalLoop=1;jettySize=auto;html=1;dashed=1;" parent="V4WPFphY2ZdUjp7nFWfL-89" source="V4WPFphY2ZdUjp7nFWfL-82" target="V4WPFphY2ZdUjp7nFWfL-75" edge="1">
          <mxGeometry relative="1" as="geometry" />
        </mxCell>
        <mxCell id="V4WPFphY2ZdUjp7nFWfL-81" value="&amp;lt;&amp;lt;extends&amp;gt;&amp;gt;" style="edgeLabel;html=1;align=center;verticalAlign=middle;resizable=0;points=[];" parent="V4WPFphY2ZdUjp7nFWfL-80" vertex="1" connectable="0">
          <mxGeometry x="-0.0741" y="-1" relative="1" as="geometry">
            <mxPoint as="offset" />
          </mxGeometry>
        </mxCell>
        <mxCell id="V4WPFphY2ZdUjp7nFWfL-82" value="&lt;div&gt;Управление&lt;/div&gt;&lt;div&gt;отзывом&lt;br&gt;&lt;/div&gt;" style="ellipse;whiteSpace=wrap;html=1;" parent="V4WPFphY2ZdUjp7nFWfL-89" vertex="1">
          <mxGeometry x="124.57846153846155" y="67.62711864406779" width="106.78153846153847" height="71.1864406779661" as="geometry" />
        </mxCell>
        <mxCell id="V4WPFphY2ZdUjp7nFWfL-90" value="" style="group;flipV=0;flipH=1;" parent="1" vertex="1" connectable="0">
          <mxGeometry x="90" y="220" width="293.32" height="207" as="geometry" />
        </mxCell>
        <mxCell id="V4WPFphY2ZdUjp7nFWfL-91" value="&lt;div&gt;Редактирование&lt;br&gt;&lt;/div&gt;&lt;div&gt;тега&lt;br&gt;&lt;/div&gt;" style="ellipse;whiteSpace=wrap;html=1;" parent="V4WPFphY2ZdUjp7nFWfL-90" vertex="1">
          <mxGeometry x="192.75314285714285" y="68.72064777327935" width="100.56685714285715" height="67.04453441295547" as="geometry" />
        </mxCell>
        <mxCell id="V4WPFphY2ZdUjp7nFWfL-92" value="&lt;div&gt;Создание&lt;/div&gt;&lt;div&gt;тега&lt;br&gt;&lt;/div&gt;" style="ellipse;whiteSpace=wrap;html=1;" parent="V4WPFphY2ZdUjp7nFWfL-90" vertex="1">
          <mxGeometry x="117.328" y="139.95546558704453" width="100.56685714285715" height="67.04453441295547" as="geometry" />
        </mxCell>
        <mxCell id="V4WPFphY2ZdUjp7nFWfL-93" value="&lt;div&gt;Удаление&lt;/div&gt;&lt;div&gt;тега&lt;br&gt;&lt;/div&gt;" style="ellipse;whiteSpace=wrap;html=1;" parent="V4WPFphY2ZdUjp7nFWfL-90" vertex="1">
          <mxGeometry x="117.328" width="100.56685714285715" height="67.04453441295547" as="geometry" />
        </mxCell>
        <mxCell id="V4WPFphY2ZdUjp7nFWfL-94" style="rounded=0;orthogonalLoop=1;jettySize=auto;html=1;entryX=0;entryY=0.5;entryDx=0;entryDy=0;dashed=1;edgeStyle=orthogonalEdgeStyle;" parent="V4WPFphY2ZdUjp7nFWfL-90" source="V4WPFphY2ZdUjp7nFWfL-100" target="V4WPFphY2ZdUjp7nFWfL-91" edge="1">
          <mxGeometry relative="1" as="geometry">
            <Array as="points" />
          </mxGeometry>
        </mxCell>
        <mxCell id="V4WPFphY2ZdUjp7nFWfL-95" value="&amp;lt;&amp;lt;extends&amp;gt;&amp;gt;" style="edgeLabel;html=1;align=center;verticalAlign=middle;resizable=0;points=[];" parent="V4WPFphY2ZdUjp7nFWfL-94" vertex="1" connectable="0">
          <mxGeometry x="-0.2067" relative="1" as="geometry">
            <mxPoint x="1" as="offset" />
          </mxGeometry>
        </mxCell>
        <mxCell id="V4WPFphY2ZdUjp7nFWfL-96" style="rounded=0;orthogonalLoop=1;jettySize=auto;html=1;dashed=1;" parent="V4WPFphY2ZdUjp7nFWfL-90" source="V4WPFphY2ZdUjp7nFWfL-100" target="V4WPFphY2ZdUjp7nFWfL-92" edge="1">
          <mxGeometry relative="1" as="geometry" />
        </mxCell>
        <mxCell id="V4WPFphY2ZdUjp7nFWfL-97" value="&amp;lt;&amp;lt;extends&amp;gt;&amp;gt;" style="edgeLabel;html=1;align=center;verticalAlign=middle;resizable=0;points=[];" parent="V4WPFphY2ZdUjp7nFWfL-96" vertex="1" connectable="0">
          <mxGeometry x="-0.0706" y="-1" relative="1" as="geometry">
            <mxPoint as="offset" />
          </mxGeometry>
        </mxCell>
        <mxCell id="V4WPFphY2ZdUjp7nFWfL-98" style="rounded=0;orthogonalLoop=1;jettySize=auto;html=1;dashed=1;" parent="V4WPFphY2ZdUjp7nFWfL-90" source="V4WPFphY2ZdUjp7nFWfL-100" target="V4WPFphY2ZdUjp7nFWfL-93" edge="1">
          <mxGeometry relative="1" as="geometry" />
        </mxCell>
        <mxCell id="V4WPFphY2ZdUjp7nFWfL-99" value="&amp;lt;&amp;lt;extends&amp;gt;&amp;gt;" style="edgeLabel;html=1;align=center;verticalAlign=middle;resizable=0;points=[];" parent="V4WPFphY2ZdUjp7nFWfL-98" vertex="1" connectable="0">
          <mxGeometry x="-0.0741" y="-1" relative="1" as="geometry">
            <mxPoint as="offset" />
          </mxGeometry>
        </mxCell>
        <mxCell id="V4WPFphY2ZdUjp7nFWfL-100" value="&lt;div&gt;Управление&lt;/div&gt;&lt;div&gt;тегами&lt;br&gt;&lt;/div&gt;" style="ellipse;whiteSpace=wrap;html=1;" parent="V4WPFphY2ZdUjp7nFWfL-90" vertex="1">
          <mxGeometry y="68.72064777327935" width="100.56685714285715" height="67.04453441295547" as="geometry" />
        </mxCell>
        <mxCell id="V4WPFphY2ZdUjp7nFWfL-107" value="" style="group" parent="1" vertex="1" connectable="0">
          <mxGeometry x="-470" y="480" width="314.29" height="220" as="geometry" />
        </mxCell>
        <mxCell id="V4WPFphY2ZdUjp7nFWfL-27" value="&lt;div&gt;Редактирование&lt;br&gt;&lt;/div&gt;&lt;div&gt;категории&lt;br&gt;&lt;/div&gt;" style="ellipse;whiteSpace=wrap;html=1;" parent="V4WPFphY2ZdUjp7nFWfL-107" vertex="1">
          <mxGeometry y="71.83673469387755" width="107.75657142857143" height="71.83673469387755" as="geometry" />
        </mxCell>
        <mxCell id="V4WPFphY2ZdUjp7nFWfL-28" value="&lt;div&gt;Создание&lt;/div&gt;&lt;div&gt;категории&lt;br&gt;&lt;/div&gt;" style="ellipse;whiteSpace=wrap;html=1;" parent="V4WPFphY2ZdUjp7nFWfL-107" vertex="1">
          <mxGeometry x="89.79714285714286" y="148.16326530612244" width="107.75657142857143" height="71.83673469387755" as="geometry" />
        </mxCell>
        <mxCell id="V4WPFphY2ZdUjp7nFWfL-29" value="&lt;div&gt;Удаление&lt;/div&gt;&lt;div&gt;категории&lt;br&gt;&lt;/div&gt;" style="ellipse;whiteSpace=wrap;html=1;" parent="V4WPFphY2ZdUjp7nFWfL-107" vertex="1">
          <mxGeometry x="89.79714285714286" width="107.75657142857143" height="71.83673469387755" as="geometry" />
        </mxCell>
        <mxCell id="V4WPFphY2ZdUjp7nFWfL-30" style="edgeStyle=orthogonalEdgeStyle;rounded=0;orthogonalLoop=1;jettySize=auto;html=1;entryX=1;entryY=0.5;entryDx=0;entryDy=0;dashed=1;" parent="V4WPFphY2ZdUjp7nFWfL-107" source="V4WPFphY2ZdUjp7nFWfL-36" target="V4WPFphY2ZdUjp7nFWfL-27" edge="1">
          <mxGeometry relative="1" as="geometry">
            <Array as="points">
              <mxPoint x="179.59428571428572" y="107.75510204081633" />
              <mxPoint x="179.59428571428572" y="107.75510204081633" />
            </Array>
          </mxGeometry>
        </mxCell>
        <mxCell id="V4WPFphY2ZdUjp7nFWfL-31" value="&amp;lt;&amp;lt;extends&amp;gt;&amp;gt;" style="edgeLabel;html=1;align=center;verticalAlign=middle;resizable=0;points=[];" parent="V4WPFphY2ZdUjp7nFWfL-30" vertex="1" connectable="0">
          <mxGeometry x="-0.2067" relative="1" as="geometry">
            <mxPoint x="1" as="offset" />
          </mxGeometry>
        </mxCell>
        <mxCell id="V4WPFphY2ZdUjp7nFWfL-32" style="rounded=0;orthogonalLoop=1;jettySize=auto;html=1;dashed=1;" parent="V4WPFphY2ZdUjp7nFWfL-107" source="V4WPFphY2ZdUjp7nFWfL-36" target="V4WPFphY2ZdUjp7nFWfL-28" edge="1">
          <mxGeometry relative="1" as="geometry" />
        </mxCell>
        <mxCell id="V4WPFphY2ZdUjp7nFWfL-33" value="&amp;lt;&amp;lt;extends&amp;gt;&amp;gt;" style="edgeLabel;html=1;align=center;verticalAlign=middle;resizable=0;points=[];" parent="V4WPFphY2ZdUjp7nFWfL-32" vertex="1" connectable="0">
          <mxGeometry x="-0.0706" y="-1" relative="1" as="geometry">
            <mxPoint as="offset" />
          </mxGeometry>
        </mxCell>
        <mxCell id="V4WPFphY2ZdUjp7nFWfL-34" style="rounded=0;orthogonalLoop=1;jettySize=auto;html=1;dashed=1;" parent="V4WPFphY2ZdUjp7nFWfL-107" source="V4WPFphY2ZdUjp7nFWfL-36" target="V4WPFphY2ZdUjp7nFWfL-29" edge="1">
          <mxGeometry relative="1" as="geometry" />
        </mxCell>
        <mxCell id="V4WPFphY2ZdUjp7nFWfL-35" value="&amp;lt;&amp;lt;extends&amp;gt;&amp;gt;" style="edgeLabel;html=1;align=center;verticalAlign=middle;resizable=0;points=[];" parent="V4WPFphY2ZdUjp7nFWfL-34" vertex="1" connectable="0">
          <mxGeometry x="-0.0741" y="-1" relative="1" as="geometry">
            <mxPoint as="offset" />
          </mxGeometry>
        </mxCell>
        <mxCell id="V4WPFphY2ZdUjp7nFWfL-36" value="&lt;div&gt;Управление&lt;/div&gt;&lt;div&gt;категорией&lt;br&gt;&lt;/div&gt;" style="ellipse;whiteSpace=wrap;html=1;" parent="V4WPFphY2ZdUjp7nFWfL-107" vertex="1">
          <mxGeometry x="206.5334285714286" y="76.3265306122449" width="107.75657142857143" height="71.83673469387755" as="geometry" />
        </mxCell>
        <mxCell id="V4WPFphY2ZdUjp7nFWfL-108" value="" style="group" parent="1" vertex="1" connectable="0">
          <mxGeometry x="89.99999999999989" y="-229.99617021276595" width="240" height="214.46404255319146" as="geometry" />
        </mxCell>
        <mxCell id="V4WPFphY2ZdUjp7nFWfL-50" value="&lt;div&gt;Создание&lt;/div&gt;&lt;div&gt;оценки&lt;br&gt;&lt;/div&gt;" style="ellipse;whiteSpace=wrap;html=1;" parent="V4WPFphY2ZdUjp7nFWfL-108" vertex="1">
          <mxGeometry x="137.87000000000012" width="102.12999999999998" height="68.08510638297872" as="geometry" />
        </mxCell>
        <mxCell id="V4WPFphY2ZdUjp7nFWfL-51" value="&lt;div&gt;Удаление&lt;/div&gt;&lt;div&gt;оценки&lt;br&gt;&lt;/div&gt;" style="ellipse;whiteSpace=wrap;html=1;" parent="V4WPFphY2ZdUjp7nFWfL-108" vertex="1">
          <mxGeometry x="137.87000000000012" y="146.3789361702128" width="102.12999999999998" height="68.08510638297872" as="geometry" />
        </mxCell>
        <mxCell id="V4WPFphY2ZdUjp7nFWfL-54" style="rounded=0;orthogonalLoop=1;jettySize=auto;html=1;dashed=1;" parent="V4WPFphY2ZdUjp7nFWfL-108" source="V4WPFphY2ZdUjp7nFWfL-58" target="V4WPFphY2ZdUjp7nFWfL-50" edge="1">
          <mxGeometry relative="1" as="geometry" />
        </mxCell>
        <mxCell id="V4WPFphY2ZdUjp7nFWfL-55" value="&amp;lt;&amp;lt;extends&amp;gt;&amp;gt;" style="edgeLabel;html=1;align=center;verticalAlign=middle;resizable=0;points=[];" parent="V4WPFphY2ZdUjp7nFWfL-54" vertex="1" connectable="0">
          <mxGeometry x="-0.0706" y="-1" relative="1" as="geometry">
            <mxPoint as="offset" />
          </mxGeometry>
        </mxCell>
        <mxCell id="V4WPFphY2ZdUjp7nFWfL-56" style="rounded=0;orthogonalLoop=1;jettySize=auto;html=1;dashed=1;" parent="V4WPFphY2ZdUjp7nFWfL-108" source="V4WPFphY2ZdUjp7nFWfL-58" target="V4WPFphY2ZdUjp7nFWfL-51" edge="1">
          <mxGeometry relative="1" as="geometry" />
        </mxCell>
        <mxCell id="V4WPFphY2ZdUjp7nFWfL-57" value="&amp;lt;&amp;lt;extends&amp;gt;&amp;gt;" style="edgeLabel;html=1;align=center;verticalAlign=middle;resizable=0;points=[];" parent="V4WPFphY2ZdUjp7nFWfL-56" vertex="1" connectable="0">
          <mxGeometry x="-0.0741" y="-1" relative="1" as="geometry">
            <mxPoint as="offset" />
          </mxGeometry>
        </mxCell>
        <mxCell id="V4WPFphY2ZdUjp7nFWfL-58" value="&lt;div&gt;Управление&lt;/div&gt;&lt;div&gt;оценкой&lt;br&gt;&lt;/div&gt;" style="ellipse;whiteSpace=wrap;html=1;" parent="V4WPFphY2ZdUjp7nFWfL-108" vertex="1">
          <mxGeometry y="68.08106382978724" width="102.12999999999998" height="68.08510638297872" as="geometry" />
        </mxCell>
        <mxCell id="V4WPFphY2ZdUjp7nFWfL-125" style="rounded=0;orthogonalLoop=1;jettySize=auto;html=1;entryX=1;entryY=0.5;entryDx=0;entryDy=0;" parent="1" source="V4WPFphY2ZdUjp7nFWfL-85" target="V4WPFphY2ZdUjp7nFWfL-112" edge="1">
          <mxGeometry relative="1" as="geometry" />
        </mxCell>
        <mxCell id="V4WPFphY2ZdUjp7nFWfL-127" style="rounded=0;orthogonalLoop=1;jettySize=auto;html=1;entryX=1;entryY=0.5;entryDx=0;entryDy=0;" parent="1" source="V4WPFphY2ZdUjp7nFWfL-85" target="V4WPFphY2ZdUjp7nFWfL-113" edge="1">
          <mxGeometry relative="1" as="geometry" />
        </mxCell>
        <mxCell id="V4WPFphY2ZdUjp7nFWfL-128" style="rounded=0;orthogonalLoop=1;jettySize=auto;html=1;entryX=1;entryY=0.5;entryDx=0;entryDy=0;" parent="1" source="V4WPFphY2ZdUjp7nFWfL-85" target="V4WPFphY2ZdUjp7nFWfL-47" edge="1">
          <mxGeometry relative="1" as="geometry" />
        </mxCell>
        <mxCell id="V4WPFphY2ZdUjp7nFWfL-129" style="rounded=0;orthogonalLoop=1;jettySize=auto;html=1;entryX=0;entryY=0.5;entryDx=0;entryDy=0;" parent="1" source="V4WPFphY2ZdUjp7nFWfL-85" target="V4WPFphY2ZdUjp7nFWfL-58" edge="1">
          <mxGeometry relative="1" as="geometry" />
        </mxCell>
        <mxCell id="V4WPFphY2ZdUjp7nFWfL-130" style="rounded=0;orthogonalLoop=1;jettySize=auto;html=1;entryX=0;entryY=0.5;entryDx=0;entryDy=0;" parent="1" source="V4WPFphY2ZdUjp7nFWfL-85" target="V4WPFphY2ZdUjp7nFWfL-71" edge="1">
          <mxGeometry relative="1" as="geometry" />
        </mxCell>
        <mxCell id="V4WPFphY2ZdUjp7nFWfL-131" style="rounded=0;orthogonalLoop=1;jettySize=auto;html=1;entryX=1;entryY=0.5;entryDx=0;entryDy=0;" parent="1" source="V4WPFphY2ZdUjp7nFWfL-85" target="V4WPFphY2ZdUjp7nFWfL-82" edge="1">
          <mxGeometry relative="1" as="geometry" />
        </mxCell>
        <mxCell id="V4WPFphY2ZdUjp7nFWfL-85" value="&lt;font style=&quot;font-size: 18px;&quot;&gt;Пользователь&lt;/font&gt;" style="shape=umlActor;verticalLabelPosition=bottom;verticalAlign=top;html=1;outlineConnect=0;" parent="1" vertex="1">
          <mxGeometry x="-60" y="-480" width="70" height="140" as="geometry" />
        </mxCell>
        <mxCell id="V4WPFphY2ZdUjp7nFWfL-110" value="" style="group" parent="1" vertex="1" connectable="0">
          <mxGeometry x="90" y="480" width="289.79" height="220" as="geometry" />
        </mxCell>
        <mxCell id="V4WPFphY2ZdUjp7nFWfL-1" value="&lt;div&gt;Редактирование&lt;br&gt;&lt;/div&gt;&lt;div&gt;пользователя&lt;br&gt;&lt;/div&gt;" style="ellipse;whiteSpace=wrap;html=1;" parent="V4WPFphY2ZdUjp7nFWfL-110" vertex="1">
          <mxGeometry x="186.8663903276408" y="71.61793372319687" width="102.92360967235923" height="68.61598440545808" as="geometry" />
        </mxCell>
        <mxCell id="V4WPFphY2ZdUjp7nFWfL-2" value="&lt;div&gt;Создание&lt;/div&gt;&lt;div&gt;пользователя&lt;br&gt;&lt;/div&gt;" style="ellipse;whiteSpace=wrap;html=1;" parent="V4WPFphY2ZdUjp7nFWfL-110" vertex="1">
          <mxGeometry x="135.40458549146118" width="102.92360967235923" height="68.61598440545808" as="geometry" />
        </mxCell>
        <mxCell id="V4WPFphY2ZdUjp7nFWfL-3" value="&lt;div&gt;Удаление&lt;/div&gt;&lt;div&gt;пользователя&lt;br&gt;&lt;/div&gt;" style="ellipse;whiteSpace=wrap;html=1;" parent="V4WPFphY2ZdUjp7nFWfL-110" vertex="1">
          <mxGeometry x="135.40458549146118" y="151.3840155945419" width="102.92360967235923" height="68.61598440545808" as="geometry" />
        </mxCell>
        <mxCell id="V4WPFphY2ZdUjp7nFWfL-5" style="edgeStyle=orthogonalEdgeStyle;rounded=0;orthogonalLoop=1;jettySize=auto;html=1;entryX=0;entryY=0.5;entryDx=0;entryDy=0;dashed=1;" parent="V4WPFphY2ZdUjp7nFWfL-110" source="V4WPFphY2ZdUjp7nFWfL-4" target="V4WPFphY2ZdUjp7nFWfL-1" edge="1">
          <mxGeometry relative="1" as="geometry" />
        </mxCell>
        <mxCell id="V4WPFphY2ZdUjp7nFWfL-6" value="&amp;lt;&amp;lt;extends&amp;gt;&amp;gt;" style="edgeLabel;html=1;align=center;verticalAlign=middle;resizable=0;points=[];" parent="V4WPFphY2ZdUjp7nFWfL-5" vertex="1" connectable="0">
          <mxGeometry x="-0.2067" relative="1" as="geometry">
            <mxPoint x="1" as="offset" />
          </mxGeometry>
        </mxCell>
        <mxCell id="V4WPFphY2ZdUjp7nFWfL-7" style="rounded=0;orthogonalLoop=1;jettySize=auto;html=1;dashed=1;" parent="V4WPFphY2ZdUjp7nFWfL-110" source="V4WPFphY2ZdUjp7nFWfL-4" target="V4WPFphY2ZdUjp7nFWfL-2" edge="1">
          <mxGeometry relative="1" as="geometry" />
        </mxCell>
        <mxCell id="V4WPFphY2ZdUjp7nFWfL-8" value="&amp;lt;&amp;lt;extends&amp;gt;&amp;gt;" style="edgeLabel;html=1;align=center;verticalAlign=middle;resizable=0;points=[];" parent="V4WPFphY2ZdUjp7nFWfL-7" vertex="1" connectable="0">
          <mxGeometry x="-0.0706" y="-1" relative="1" as="geometry">
            <mxPoint as="offset" />
          </mxGeometry>
        </mxCell>
        <mxCell id="V4WPFphY2ZdUjp7nFWfL-11" style="rounded=0;orthogonalLoop=1;jettySize=auto;html=1;dashed=1;" parent="V4WPFphY2ZdUjp7nFWfL-110" source="V4WPFphY2ZdUjp7nFWfL-4" target="V4WPFphY2ZdUjp7nFWfL-3" edge="1">
          <mxGeometry relative="1" as="geometry" />
        </mxCell>
        <mxCell id="V4WPFphY2ZdUjp7nFWfL-12" value="&amp;lt;&amp;lt;extends&amp;gt;&amp;gt;" style="edgeLabel;html=1;align=center;verticalAlign=middle;resizable=0;points=[];" parent="V4WPFphY2ZdUjp7nFWfL-11" vertex="1" connectable="0">
          <mxGeometry x="-0.0741" y="-1" relative="1" as="geometry">
            <mxPoint as="offset" />
          </mxGeometry>
        </mxCell>
        <mxCell id="V4WPFphY2ZdUjp7nFWfL-4" value="&lt;div&gt;Управление&lt;/div&gt;&lt;div&gt;пользователем&lt;br&gt;&lt;/div&gt;" style="ellipse;whiteSpace=wrap;html=1;" parent="V4WPFphY2ZdUjp7nFWfL-110" vertex="1">
          <mxGeometry y="69.90253411306043" width="102.92360967235923" height="68.61598440545808" as="geometry" />
        </mxCell>
        <mxCell id="V4WPFphY2ZdUjp7nFWfL-112" value="Авторизация" style="ellipse;whiteSpace=wrap;html=1;" parent="1" vertex="1">
          <mxGeometry x="-262.49" y="-180" width="106.78153846153847" height="71.1864406779661" as="geometry" />
        </mxCell>
        <mxCell id="V4WPFphY2ZdUjp7nFWfL-113" value="Регистрация" style="ellipse;whiteSpace=wrap;html=1;" parent="1" vertex="1">
          <mxGeometry x="-262.48999999999995" y="-86.72" width="106.78153846153847" height="71.1864406779661" as="geometry" />
        </mxCell>
        <mxCell id="V4WPFphY2ZdUjp7nFWfL-106" value="" style="group" parent="1" vertex="1" connectable="0">
          <mxGeometry x="90" y="-10" width="311.74" height="220" as="geometry" />
        </mxCell>
        <mxCell id="V4WPFphY2ZdUjp7nFWfL-62" value="&lt;div&gt;Редактирование&lt;br&gt;&lt;/div&gt;&lt;div&gt;коментария&lt;br&gt;&lt;/div&gt;" style="ellipse;whiteSpace=wrap;html=1;" parent="V4WPFphY2ZdUjp7nFWfL-106" vertex="1">
          <mxGeometry x="204.8577142857143" y="73.03643724696357" width="106.88228571428571" height="71.25506072874495" as="geometry" />
        </mxCell>
        <mxCell id="V4WPFphY2ZdUjp7nFWfL-63" value="&lt;div&gt;Создание&lt;/div&gt;&lt;div&gt;коментария&lt;br&gt;&lt;/div&gt;" style="ellipse;whiteSpace=wrap;html=1;" parent="V4WPFphY2ZdUjp7nFWfL-106" vertex="1">
          <mxGeometry x="124.696" width="106.88228571428571" height="71.25506072874495" as="geometry" />
        </mxCell>
        <mxCell id="V4WPFphY2ZdUjp7nFWfL-64" value="&lt;div&gt;Удаление&lt;/div&gt;&lt;div&gt;коментария&lt;br&gt;&lt;/div&gt;" style="ellipse;whiteSpace=wrap;html=1;" parent="V4WPFphY2ZdUjp7nFWfL-106" vertex="1">
          <mxGeometry x="124.696" y="148.74493927125505" width="106.88228571428571" height="71.25506072874495" as="geometry" />
        </mxCell>
        <mxCell id="V4WPFphY2ZdUjp7nFWfL-65" style="rounded=0;orthogonalLoop=1;jettySize=auto;html=1;entryX=0;entryY=0.5;entryDx=0;entryDy=0;dashed=1;edgeStyle=orthogonalEdgeStyle;" parent="V4WPFphY2ZdUjp7nFWfL-106" source="V4WPFphY2ZdUjp7nFWfL-71" target="V4WPFphY2ZdUjp7nFWfL-62" edge="1">
          <mxGeometry relative="1" as="geometry" />
        </mxCell>
        <mxCell id="V4WPFphY2ZdUjp7nFWfL-66" value="&amp;lt;&amp;lt;extends&amp;gt;&amp;gt;" style="edgeLabel;html=1;align=center;verticalAlign=middle;resizable=0;points=[];" parent="V4WPFphY2ZdUjp7nFWfL-65" vertex="1" connectable="0">
          <mxGeometry x="-0.2067" relative="1" as="geometry">
            <mxPoint x="1" as="offset" />
          </mxGeometry>
        </mxCell>
        <mxCell id="V4WPFphY2ZdUjp7nFWfL-67" style="rounded=0;orthogonalLoop=1;jettySize=auto;html=1;dashed=1;" parent="V4WPFphY2ZdUjp7nFWfL-106" source="V4WPFphY2ZdUjp7nFWfL-71" target="V4WPFphY2ZdUjp7nFWfL-63" edge="1">
          <mxGeometry relative="1" as="geometry" />
        </mxCell>
        <mxCell id="V4WPFphY2ZdUjp7nFWfL-68" value="&amp;lt;&amp;lt;extends&amp;gt;&amp;gt;" style="edgeLabel;html=1;align=center;verticalAlign=middle;resizable=0;points=[];" parent="V4WPFphY2ZdUjp7nFWfL-67" vertex="1" connectable="0">
          <mxGeometry x="-0.0706" y="-1" relative="1" as="geometry">
            <mxPoint as="offset" />
          </mxGeometry>
        </mxCell>
        <mxCell id="V4WPFphY2ZdUjp7nFWfL-69" style="rounded=0;orthogonalLoop=1;jettySize=auto;html=1;dashed=1;" parent="V4WPFphY2ZdUjp7nFWfL-106" source="V4WPFphY2ZdUjp7nFWfL-71" target="V4WPFphY2ZdUjp7nFWfL-64" edge="1">
          <mxGeometry relative="1" as="geometry" />
        </mxCell>
        <mxCell id="V4WPFphY2ZdUjp7nFWfL-70" value="&amp;lt;&amp;lt;extends&amp;gt;&amp;gt;" style="edgeLabel;html=1;align=center;verticalAlign=middle;resizable=0;points=[];" parent="V4WPFphY2ZdUjp7nFWfL-69" vertex="1" connectable="0">
          <mxGeometry x="-0.0741" y="-1" relative="1" as="geometry">
            <mxPoint as="offset" />
          </mxGeometry>
        </mxCell>
        <mxCell id="V4WPFphY2ZdUjp7nFWfL-71" value="&lt;div&gt;Управление&lt;/div&gt;&lt;div&gt;коментарием&lt;br&gt;&lt;/div&gt;" style="ellipse;whiteSpace=wrap;html=1;" parent="V4WPFphY2ZdUjp7nFWfL-106" vertex="1">
          <mxGeometry y="73.03643724696357" width="106.88228571428571" height="71.25506072874495" as="geometry" />
        </mxCell>
      </root>
    </mxGraphModel>
  </diagram>
</mxfile>
